<?xml version="1.0" encoding="UTF-8"?>
<svg version="1.1" xmlns="http://www.w3.org/2000/svg" width="47" height="54">
<path d="M0 0 C15.51 0 31.02 0 47 0 C47 17.82 47 35.64 47 54 C31.49 54 15.98 54 0 54 C0 36.18 0 18.36 0 0 Z " fill="#FCFEFC" transform="translate(0,0)"/>
<path d="M0 0 C8.83700441 -0.44933921 8.83700441 -0.44933921 13 3 C15.98350721 7.01625971 16.33754301 9.86108051 16.1875 14.8125 C16.16042969 15.97394531 16.13335938 17.13539062 16.10546875 18.33203125 C16.07066406 19.21246094 16.03585938 20.09289062 16 21 C14.68 21 13.36 21 12 21 C12 18.03 12 15.06 12 12 C11.278125 11.9175 10.55625 11.835 9.8125 11.75 C6.27486443 10.80663051 4.55632349 9.62541331 2 7 C0.6875 3.25 0.6875 3.25 0 0 Z " fill="#51AE55" transform="translate(13,23)"/>
<path d="M0 0 C-0.28578509 3.71520613 -0.5027779 6.30020593 -2.6875 9.375 C-5.46578975 11.32731171 -7.64877744 11.6953434 -11 12 C-12.48873294 9.63554179 -13.00636486 8.26095932 -12.9375 5.4375 C-12 3 -12 3 -9.875 1.1875 C-6.41554399 -0.24140574 -3.70840602 -0.21814153 0 0 Z " fill="#58AD5E" transform="translate(41,19)"/>
<path d="M0 0 C3.96679947 3.96679947 3.96679947 3.96679947 4.09765625 8.0390625 C4.08605469 9.22242188 4.07445312 10.40578125 4.0625 11.625 C4.05347656 12.81351563 4.04445313 14.00203125 4.03515625 15.2265625 C4.02355469 16.14179687 4.01195312 17.05703125 4 18 C2.68 18 1.36 18 0 18 C0 15.03 0 12.06 0 9 C0.66 9 1.32 9 2 9 C1.34 6.03 0.68 3.06 0 0 Z " fill="#78B97A" transform="translate(25,26)"/>
<path d="M0 0 C8.57142857 -0.28571429 8.57142857 -0.28571429 12 2 C8.93109813 3.53445094 6.29905734 2.54984289 3 2 C3 2.99 3 3.98 3 5 C3.639375 5.2475 4.27875 5.495 4.9375 5.75 C7 7 7 7 7.75 9.125 C7.8325 9.74375 7.915 10.3625 8 11 C3.49413822 8.80795913 1.86918556 6.62377481 0 2 C0 1.34 0 0.68 0 0 Z " fill="#63AB69" transform="translate(13,23)"/>
<path d="M0 0 C1.37478516 0.01740234 1.37478516 0.01740234 2.77734375 0.03515625 C3.69644531 0.04417969 4.61554687 0.05320312 5.5625 0.0625 C6.27277344 0.07410156 6.98304687 0.08570312 7.71484375 0.09765625 C8.04484375 0.75765625 8.37484375 1.41765625 8.71484375 2.09765625 C5.41484375 1.76765625 2.11484375 1.43765625 -1.28515625 1.09765625 C-0.62515625 3.40765625 0.03484375 5.71765625 0.71484375 8.09765625 C-0.27515625 7.76765625 -1.26515625 7.43765625 -2.28515625 7.09765625 C-2.66648924 5.10625065 -2.99841207 3.10486548 -3.28515625 1.09765625 C-2.28515625 0.09765625 -2.28515625 0.09765625 0 0 Z " fill="#D4F2D4" transform="translate(14.28515625,21.90234375)"/>
<path d="M0 0 C0 2.64 0 5.28 0 8 C-0.99 8 -1.98 8 -3 8 C-3 5.69 -3 3.38 -3 1 C-1 0 -1 0 0 0 Z " fill="#5EA661" transform="translate(29,36)"/>
<path d="M0 0 C2.97 0.495 2.97 0.495 6 1 C5.67 1.99 5.34 2.98 5 4 C3.35 3.67 1.7 3.34 0 3 C0 2.01 0 1.02 0 0 Z " fill="#4AB04C" transform="translate(16,25)"/>
</svg>
